<svg width="146" height="170" viewBox="0 0 146 170" fill="none" xmlns="http://www.w3.org/2000/svg">
<line y1="167" x2="146" y2="167" stroke="#17CEB8" stroke-width="6"/>
<rect x="9" y="92" width="29" height="70" fill="#BA0909"/>
<rect x="111" y="49" width="30" height="113" fill="#343BD1"/>
<rect x="77" y="59" width="30" height="103" fill="#D3D727"/>
<rect x="43" y="74" width="30" height="88" fill="#11D0AE"/>
<path d="M6.3882 58.1032L47.5294 21.2237L84.6936 38.4681L121.423 15.5443" stroke="#E24A4A" stroke-width="6"/>
<path d="M136.693 8.87696C136.952 7.36575 135.746 5.90885 133.998 5.6229L105.519 0.962961C103.771 0.677004 102.144 1.67027 101.885 3.18148C101.625 4.69269 102.832 6.14959 104.579 6.43554L129.894 10.5777L126.136 32.468C125.877 33.9793 127.083 35.4361 128.831 35.7221C130.579 36.0081 132.206 35.0148 132.465 33.5036L136.693 8.87696ZM85.1091 41.382L135.434 10.6602L131.623 6.05822L81.2983 36.78L85.1091 41.382Z" fill="#FD5A5A"/>
</svg>
