
<svg width="288" height="288" viewBox="0 0 288 288" fill="none" xmlns="http://www.w3.org/2000/svg">
<circle cx="144" cy="144" r="144" fill="#BEE3F8"/>
<line x1="42.8936" y1="226.174" x2="221.821" y2="226.174" stroke="#E24A4A" stroke-width="6"/>
<rect x="53.9234" y="133.583" width="35.5404" height="85.7872" fill="#1A1818"/>
<rect x="178.928" y="80.8851" width="36.766" height="138.485" fill="#BA0909"/>
<rect x="137.26" y="93.1404" width="36.766" height="126.23" fill="#FC3D01"/>
<rect x="95.5915" y="111.523" width="36.766" height="107.847" fill="#1197D0"/>
<path d="M50.7226 92.0414L101.142 46.8444L146.688 67.9779L191.702 39.8841" stroke="#E24A4A" stroke-width="6"/>
<path d="M209.701 31.5963C209.961 30.0851 208.754 28.6282 207.007 28.3422L178.527 23.6823C176.78 23.3963 175.153 24.3896 174.893 25.9008C174.634 27.412 175.84 28.8689 177.588 29.1549L202.903 33.297L199.145 55.1873C198.886 56.6986 200.092 58.1555 201.84 58.4414C203.587 58.7274 205.214 57.7341 205.474 56.2229L209.701 31.5963ZM146.768 71.03L208.442 33.3795L204.632 28.7775L142.957 66.4281L146.768 71.03Z" fill="#FD5A5A"/>
</svg>
